{"title":"The Legend Of Hercules 2014 HDRip XviD AC3-HDx","uid":9829166,"size":2211352654,"categoryP":"video","categoryS":"movies","magnet":"?xt=urn:btih:6b69a467e4a58c6829305419f45e0259f0e77f1e&amp;dn=The+Legend+Of+Hercules+2014+HDRip+XviD+AC3-HDx&amp;tr=udp%3A%2F%2Ftracker.openbittorrent.com%3A80&amp;tr=udp%3A%2F%2Fopen.demonii.com%3A1337&amp;tr=udp%3A%2F%2Ftracker.coppersurfer.tk%3A6969&amp;tr=udp%3A%2F%2Fexodus.desync.com%3A6969","seeders":5,"leechers":6,"uploader":"HeroMaster","files":-1,"time":1395813925,"description":"::::::: HDx PRESENTS ::::::::\n\n\n:::: The Legend Of Hercules 2014 HDRip XviD AC3-HDx ::::\n\n\n::Information::\n\n\nTiTLE.........: The Legend Of Hercules\nFiLES.........: 2 [movie+sample]\nSiZE..........: 1.96 GB\nRUNTIME.......: 1h 34mn\nLANGUAGE......: English\nAUDiO.........: 48000Hz  448 kb/s\nViDEO.........: 2 537 kbps XviD 25.000 FPS\nRESOLUTiON....: 720 x 400\nASPECT RATiO..: 16:9\nGENRE.........: Action | Adventure\niMDB..........: http://www.imdb.com/title/tt1043726/\n\n\n\n::Plot::\n\n\nThe origin story of the the mythical Greek hero. Betrayed by his stepfather, \nthe King, and exiled and sold into slavery because of a forbidden love, \nHercules must use his formidable powers to fight his way back to his \nrightful kingdom.\n\n\n::General::\n\n\nFormat                                   : AVI\nFormat/Info                              : Audio Video Interleave\nFormat profile                           : OpenDML\nFile size                                : 1.96 GiB\nDuration                                 : 1h 34mn\nOverall bit rate                         : 2 968 Kbps\nWriting application                      : AVI-Mux GUI 1.17.8.3, Feb 16 201019:42:50\n\nVideo\nID                                       : 0\nFormat                                   : MPEG-4 Visual\nFormat profile                           : Advanced Simple@L5\nFormat settings, BVOP                    : 2\nFormat settings, QPel                    : No\nFormat settings, GMC                     : No warppoints\nFormat settings, Matrix                  : Default (H.263)\nMuxing mode                              : Packed bitstream\nCodec ID                                 : XVID\nCodec ID/Hint                            : XviD\nDuration                                 : 1h 34mn\nBit rate                                 : 2 537 Kbps\nWidth                                    : 720 pixels\nHeight                                   : 400 pixels\nDisplay aspect ratio                     : 16:9\nFrame rate                               : 25.000 fps\nColor space                              : YUV\nChroma subsampling                       : 4:2:0\nBit depth                                : 8 bits\nScan type                                : Progressive\nCompression mode                         : Lossy\nBits/(Pixel*Frame)                       : 0.352\nStream size                              : 1.67 GiB (85%)\nWriting library                          : XviD 64\n\nAudio\nID                                       : 1\nFormat                                   : AC-3\nFormat/Info                              : Audio Coding 3\nMode extension                           : CM (complete main)\nFormat settings, Endianness              : Big\nCodec ID                                 : 2000\nDuration                                 : 1h 29mn\nBit rate mode                            : Constant\nBit rate                                 : 448 Kbps\nChannel(s)                               : 6 channels\nChannel positions                        : Front: L C R, Side: L R, LFE\nSampling rate                            : 48.0 KHz\nBit depth                                : 16 bits\nCompression mode                         : Lossy\nStream size                              : 288 MiB (14%)\nAlignment                                : Aligned on interleaves\nInterleave, duration                     : 67 ms (1.68 video frames)\nInterleave, preload duration             : 192 ms\nTitle                                    : xdx\n\n\n::Greetz and Respect::\n\n\nALL CREDIT Goes to HDx for Encoding and rockerss07 for Distribution.\n\n\n::Poster::\n\n &lt;a href=&quot;\nhttp://i.imgur.com/fiPG3kA.jpg&quot; rel=&quot;nofollow&quot; target=&quot;_NEW&quot;&gt;\nhttp://i.imgur.com/fiPG3kA.jpg&lt;/a&gt;\n\n\n::Screenshots::\n\n &lt;a href=&quot;\nhttp://i.imgur.com/rw0HWgN.png&quot; rel=&quot;nofollow&quot; target=&quot;_NEW&quot;&gt;\nhttp://i.imgur.com/rw0HWgN.png&lt;/a&gt;\n\n &lt;a href=&quot;\nhttp://i.imgur.com/nCzasqj.png&quot; rel=&quot;nofollow&quot; target=&quot;_NEW&quot;&gt;\nhttp://i.imgur.com/nCzasqj.png&lt;/a&gt;\n\n &lt;a href=&quot;\nhttp://i.imgur.com/KnzDPQD.png&quot; rel=&quot;nofollow&quot; target=&quot;_NEW&quot;&gt;\nhttp://i.imgur.com/KnzDPQD.png&lt;/a&gt;\n\n\nSEED AND ENJOY!","torrent":{"xt":"urn:btih:6b69a467e4a58c6829305419f45e0259f0e77f1e","amp;dn":"The+Legend+Of+Hercules+2014+HDRip+XviD+AC3-HDx","amp;tr":["udp%3A%2F%2Ftracker.openbittorrent.com%3A80","udp%3A%2F%2Fopen.demonii.com%3A1337","udp%3A%2F%2Ftracker.coppersurfer.tk%3A6969","udp%3A%2F%2Fexodus.desync.com%3A6969"],"infoHash":"6b69a467e4a58c6829305419f45e0259f0e77f1e","infoHashBuffer":{"type":"Buffer","data":[107,105,164,103,228,165,140,104,41,48,84,25,244,94,2,89,240,231,127,30]},"announce":[],"urlList":[]}}